<svg data-name="Group 313" xmlns="http://www.w3.org/2000/svg" width="24" height="24">
    <path data-name="Rectangle 109" style="fill:none" d="M0 0h24v24H0z"/>
    <path data-name="Icon feather-phone" d="M19.136 14.979v2.409a1.606 1.606 0 0 1-1.75 1.606 15.889 15.889 0 0 1-6.929-2.465 15.656 15.656 0 0 1-4.817-4.817A15.889 15.889 0 0 1 3.174 4.75 1.606 1.606 0 0 1 4.772 3h2.409a1.606 1.606 0 0 1 1.605 1.381 10.309 10.309 0 0 0 .562 2.256 1.606 1.606 0 0 1-.361 1.694l-1.02 1.02a12.846 12.846 0 0 0 4.817 4.817l1.02-1.02a1.606 1.606 0 0 1 1.694-.361 10.309 10.309 0 0 0 2.256.562 1.606 1.606 0 0 1 1.382 1.63z" transform="translate(1.332 1.5)" style="stroke:#000;stroke-linecap:round;stroke-linejoin:round;stroke-width:2px;fill:none"/>
</svg>
