<?xml version="1.0" encoding="UTF-8"?>
<svg id="Layer_1" data-name="Layer 1" xmlns="http://www.w3.org/2000/svg" viewBox="0 0 28.8 19">
  <defs>
    <style>
      .cls-1 {
        fill: #30302f;
      }

      .cls-2 {
        fill: #f05822;
      }
    </style>
  </defs>
  <g>
    <polygon class="cls-2" points="13 13.2 12.2 11.9 10.7 13.2 9.2 11.2 5.8 13.2 5.3 12.9 2.2 15.7 1 16.4 0 18.6 16.3 18.6 13.3 13.8 13.3 13.8 13 13.2 13 13.2"/>
    <path class="cls-1" d="M28.5,16.1l-3.8-3.5-.7-3.6c0,0,0-.2,0-.2,0,0,0,0,0,0h0s0,0,0,0l-.4-.8,.8-.4c.1,.1,.3,.2,.5,.2s.2,0,.3,0c.4-.1,.6-.5,.5-.9l.4-.3c.2,0,.2-.3,.1-.4,0-.2-.3-.2-.4-.1l-.3,.2-1.2-3.1c-.1-.3-.4-.5-.7-.5l-3.3-.3s0,0,0,0c0,0,0,0,0,0-.3,0-.7,.2-1.4,.6,0,0-.2,0-.3,.1l-.4,.2c0,0-.2,.1-.3,.2h0c0,0-.2,.1-.3,.2-.8,.6-1.2,1.5-1.3,1.7,0,0,0,0,0,0,0,.1,0,.2,0,.3v3.5l-1.2,2.7c0,.1,0,.2,0,.4l-1.8,1,.3,.6,1.8-1c0,0,.1,0,.2,.1,.1,0,.2,0,.3,0,.3,0,.6-.2,.7-.5l.3-.6,2.4-1.4-1.3,2.2c0,.1-.1,.3-.1,.5v4.8c0,.5,.4,1,1,1s1-.4,1-1v-4.6l2-3.5s0,0,0,0c0,0,0,0,.1,0l.5-.3,.8,3.7c0,.2,.1,.4,.3,.5l4,3.7c.2,.2,.4,.3,.7,.3s.5-.1,.7-.3c.4-.4,.3-1,0-1.4Zm-11.5-5.2l.6-1.3c0-.1,0-.2,0-.3v-2.2l1.3,2.2c0,.1,.2,.3,.2,.4l-2.2,1.3Zm6.1-3.5l-1.9-3.5h1.6c0,.1,1.1,3,1.1,3l-.8,.4Z"/>
  </g>
  <path class="cls-1" d="M16.3,3.8c1,0,1.9-.8,1.9-1.9s-.8-1.9-1.9-1.9-1.9,.8-1.9,1.9,.8,1.9,1.9,1.9Z"/>
</svg>