<svg data-name="Group 34" xmlns="http://www.w3.org/2000/svg" width="384.547" height="318" viewBox="0 0 384.547 318">
    <defs>
        <clipPath id="ffua8v617a">
            <path data-name="Rectangle 11" style="fill:none" d="M0 0h44.38v21.711H0z"/>
        </clipPath>
        <clipPath id="trd4m98xwb">
            <path data-name="Rectangle 10" style="fill:none" d="M0 0h66.098v15.531H0z"/>
        </clipPath>
        <clipPath id="f6rhs8nc0c">
            <path data-name="Rectangle 10" style="fill:none" d="M0 0h78.228v18.381H0z"/>
        </clipPath>
        <clipPath id="qkvlp42otd">
            <path data-name="Rectangle 14" style="fill:none" d="M0 0h19.309v19.93H0z"/>
        </clipPath>
    </defs>
    <g data-name="Group 35">
        <g data-name="Group 27">
            <g data-name="Group 34">
                <path data-name="Path 3" d="m1575.878 544.79 3.443-.977a21.61 21.61 0 0 0 9.308 36.675l-5.073.842a18.669 18.669 0 0 1-7.679-36.539" transform="translate(-1475.386 -436.291)" style="fill:#3d4bad"/>
                <path data-name="Path 4" d="m1203.191 742.892-1.813.53a15.527 15.527 0 0 1-19.255-10.553l-20.6-70.564a15.526 15.526 0 0 1 10.553-19.254l1.814-.53a15.525 15.525 0 0 1 19.254 10.552l20.6 70.564a15.526 15.526 0 0 1-10.553 19.254" transform="translate(-1022.01 -514.98)" style="fill:#3d4bad"/>
                <path data-name="Path 5" d="m1196.705 414.246-73.194 10.915a31.043 31.043 0 1 1-12.767-60.759l73.36-23.009c1.553-.327 14.156 72.527 12.6 72.853" transform="translate(-989.685 -273.891)" style="fill:#4e62e0"/>
                <path data-name="Path 6" d="m1128.112 633.328 72.1-10.751a29.719 29.719 0 0 0 8.015 15.739l-72.662 10.836a31.044 31.044 0 0 1-35.989-21.041 38.242 38.242 0 0 0 28.54 5.218" transform="translate(-1003.738 -499.481)" style="fill:#495bd1"/>
                <path data-name="Path 7" d="m1450.244 454.526 5.724-1.624a35.908 35.908 0 0 0-10.592 33.613 35.921 35.921 0 0 0 26.071 27.371l-8.435 1.4a31.043 31.043 0 1 1-12.769-60.759" transform="translate(-1331.42 -363.354)" style="fill:#fff"/>
                <path data-name="Path 8" d="m762.456 8.748-60.984 69.27c-3.919 19.064.744 51.541 12.86 69.791l85.964 41a2.97 2.97 0 0 0 4.369-3.2L767.742 9.914a2.97 2.97 0 0 0-5.286-1.167" transform="translate(-521.267 -6.059)" style="fill:#4e62e0"/>
                <path data-name="Path 9" d="M671.254 84.325c10.652 50.691 2.694 95.271-17.776 99.573s-45.7-33.3-56.352-84S594.433 4.632 614.9.33s45.7 33.3 56.352 84" transform="translate(-371.219 .005)" style="fill:#7184ff"/>
                <path data-name="Path 10" d="M682.854 131.261c9.777 46.527 3.28 87.275-14.512 91.014S628.2 191.328 618.423 144.8s-3.28-87.275 14.512-91.014 40.142 30.947 49.919 77.474" transform="translate(-386.889 -42.93)" style="fill:#4a5dd4"/>
                <path data-name="Path 11" d="M760 321.272c2.648-2.771 6.581-5.022 12.234-6.681 11.971-3.513 25.819 10.973 30.565 30.95s-1.643 37.107-13.376 41.392c-6.309 2.3-11.138 2.282-14.941.6a206.4 206.4 0 0 1-10.831-37.333A214.765 214.765 0 0 1 760 321.272" transform="translate(-532.751 -251.967)" style="fill:#27427a"/>
                <path data-name="Path 12" d="m518.488 143.372 7.437-4.814 5.644-3.653 4.786-3.1a.8.8 0 0 1 1.082.284.808.808 0 0 1-.284 1.082l-7.437 4.814-5.644 3.654-4.786 3.1a.8.8 0 0 1-1.082-.284.809.809 0 0 1 .284-1.082" transform="translate(-218.087 -105.658)" style="fill:#27427a"/>
                <path data-name="Path 13" d="m292.468 456.925 1.221-.16 3.322-.436 4.914-.645 6-.786 6.567-.861 6.629-.869 6.18-.811 5.222-.685 3.744-.491c.594-.078 1.19-.176 1.786-.234l.075-.01a.792.792 0 0 1 .791.791.815.815 0 0 1-.791.791l-1.221.16-3.322.436-4.914.644-6 .786-6.567.861-6.629.869-6.18.811-5.222.685-3.743.491c-.594.078-1.19.176-1.786.234l-.075.01a.792.792 0 0 1-.791-.791.816.816 0 0 1 .791-.791" transform="translate(25.305 -361.774)" style="fill:#27427a"/>
                <path data-name="Path 14" d="m415.589 787.611 8.747 1.4 6.638 1.066 5.629.9a.794.794 0 0 1 .552.973.815.815 0 0 1-.973.552l-8.747-1.4-6.635-1.062-5.629-.9a.793.793 0 0 1-.552-.973.814.814 0 0 1 .973-.552" transform="translate(-97.267 -631.873)" style="fill:#27427a"/>
                <path data-name="Path 16" d="m1903.315 1245.5-6.658-9.156a8.872 8.872 0 0 0-4.919-.92 1.4 1.4 0 0 0-1.34 1.317l-.3 1.417c-.43 2.381-.789 3.147.642 4.053l8.5 5.38c1.711 1.564 6.912 1.269 4.079-2.091" transform="translate(-1855.885 -991.128)" style="fill:#27427a"/>
                <path data-name="Path 17" d="M1916.864 1244.389s3.786 5.442 3.219 5.76c-2.359 1.322-7.25-3.591-7.25-3.591s3.083-2.5 4.032-2.169" transform="translate(-1876.452 -998.325)" style="fill:#ed5353"/>
                <path data-name="Path 18" d="M1920.908 970.116c1.136 2.153 4.368.783 4.554-1.479-.027-12.668 2.688-22.616 2.67-34.458-.021-13.3-1-13.525-1.056-33.908l-12.361 1.957c2.271 14.658 3.221 33.172 3.221 33.172-3.283 14.206.605 17.248 2.972 34.715" transform="translate(-1884.815 -722.27)" style="fill:#ed5353"/>
                <path data-name="Path 19" d="m2066.162 1235.053 1.2-11.266a9.091 9.091 0 0 0-2.983-4.044 1.362 1.362 0 0 0-1.851.047l-1.158.833c-1.892 1.449-2.662 1.765-2.217 3.408l2.644 9.76c.213 2.317 4.208 5.663 4.364 1.261" transform="translate(-2052.581 -978.304)" style="fill:#27427a"/>
                <path data-name="Path 20" d="M2066.249 1231.548s-.839 6.578-1.465 6.422c-2.6-.646-2.78-9.158-2.78-9.158s3.774 1.84 4.245 2.736" transform="translate(-2052.053 -985.853)" style="fill:#ed5353"/>
                <path data-name="Path 21" d="M1977.88 956.178c-.291 2.391 2.791 4.717 4.225 3.05 13.965-26.18 12.267-43.682 16.8-67.422l-9.242-2.894c-1.681 16.122-5.01 37.967-5.01 37.967-3.872 6.533-4.753 18.9-6.768 29.3" transform="translate(-1968.069 -713.157)" style="fill:#ed5353"/>
                <path data-name="Path 22" d="M1942.464 829.511s2.628-1.018 1.381 45.764c0 0-2.963 2.712-11.114 4.833-7.684 2-12.675-7.054-18.892-4.9 0 0 3.843-8.945 3.327-13.133s-3.083-28.661 3.8-29.459 21.5-3.1 21.5-3.1" transform="translate(-1900.691 -665.499)" style="fill:#27427a"/>
                <path data-name="Path 23" d="M1984.47 884.874s3.843-8.945 3.327-13.133-3.083-28.662 3.8-29.459a262.1 262.1 0 0 0 5.655-.737c-.48 4.073-1.443 10.75-3.339 21.669-2.527 14.556 2.246 22.589 6.934 26.841-6.315-.2-10.865-7.09-16.377-5.181" transform="translate(-1971.322 -675.155)" style="fill:#223a6b"/>
                <path data-name="Path 24" d="m1971.683 568.02-9.563 8.2s-.085 6.644-5.251 9.451-9.411 4.427-9.042 13.028-12.217 8.505-7.382 16.905 22.5 7.012 27.211.923 12.074-24.823 9.654-30.289-5.626-18.217-5.626-18.217" transform="translate(-1939.337 -455.711)" style="fill:#27427a"/>
                <path data-name="Path 25" d="M1768.8 623.11c-5.481.327-4.659-4.763-4.659-4.763l4.278-7.057c3.393-1.17 11.294.432 18.13 1.378a6.74 6.74 0 0 0 4.482-2.563l8.962-11.735 2.731 1.644-5.58 14.135c-1.86 5.476-9.834 6.589-11.149 6.894 0 0-10.676 1.679-17.2 2.068" transform="translate(-1729.626 -480.06)" style="fill:#4e62e0"/>
                <path data-name="Path 26" d="M1745.373 577.171c1.125 1.3 1.19 3.094.146 3.984l-4.712 2.336c-1.045.89-.4.166-1.524-1.138-1.124-1.3-2.26-.618-.643-2.759l3.012-2.445a4.547 4.547 0 0 1 1.3-.758c.887-.322 1.533-.243 2.417.781" transform="translate(-1667.973 -462.291)" style="fill:#ed5353"/>
                <path data-name="Path 27" d="M1944.791 669.094s.3-10.971-5.711-11c-.837 0-2.215-.826-3.183-.81-5.02.083-4.31.134-7.994 1.418-1.387.484-2.382 4.418-2.209 5.908l-2.363 4.378z" transform="translate(-1903.181 -527.327)" style="fill:#ed5353"/>
                <path data-name="Path 28" d="M1932.618 659.251c-.978-.168-2.26-.458-2.146.117.5 2.522.244 4.23-.641 4.943-5.334 4.3-7.792-1.932-8.281-4.138-.083-.375-.563-.93-.938-.714l-2 .727c-10.8 2.866-8.309 5.875-5.878 11.685 0 0 2.853 10.179 2.822 14.319-.026 3.579-3.433 8.985-4.085 10.108-.844 1.455 3.607 10.92 17.447 9.85 10.9-.843 9.832-5.361 9.822-11.283-.007-3.727-1.911-13.737-1.746-16.683s2.5-5.073 1.1-9.868a57.355 57.355 0 0 0-3.308-8.61z" transform="translate(-1894.646 -528.725)" style="fill:#4e62e0"/>
                <path data-name="Path 29" d="m1960.882 629.866.352.054a2.03 2.03 0 0 0 2.368-1.8l.641-6.595a2.316 2.316 0 0 0-1.955-2.456l-.352-.054c-1.189-.181-2.977.271-3.09 1.441l-.973 6.988c-.113 1.17 1.821 2.238 3.009 2.42" transform="translate(-1929.468 -496.595)" style="fill:#ed5353"/>
                <path data-name="Path 30" d="M1964.328 640.164a6.339 6.339 0 0 1-4.865-2.634s2.046 4.128 4.664 4.474z" transform="translate(-1929.859 -511.478)" style="fill:#ba4141"/>
                <path data-name="Path 31" d="M1939.275 584.263s1.769 6.9-2.152 8.684-5.908-12.424-5.908-12.424z" transform="translate(-1899.618 -465.742)" style="fill:#27427a"/>
                <path data-name="Path 32" d="M1940.971 576.531c.9-1.846 2.451-2.312 3.992-1.458 1.388-.757 3.191-.035 4.647 2.113 2.027 2.991 2.892 7.967 1.583 10.66a3.024 3.024 0 0 1-2.595 1.642 7.37 7.37 0 0 1-2.8-.226c-3.3-.891-3.319-.411-4.67-2.4-2.027-2.991-1.463-7.635-.153-10.327" transform="translate(-1913.458 -461.039)" style="fill:#ed5353"/>
                <path data-name="Path 33" d="M1990.732 581.545c-.967 3.176-.685 10.293-.8 11.247 0 0-6.486.2-6.069-7.164.518-9.165 5.974-4.879 5.974-4.879z" transform="translate(-1961.085 -465.121)" style="fill:#27427a"/>
                <path data-name="Path 34" d="M1937.386 572.306c3.442-1.672 6.29-3 12.039 1.259.364-.8-.862-3.339-2.056-4.11-2.5-1.612-3.763-2.488-6.39-2.9l-.633-.031c-3.82-.187-5.743 1.392-6.33 5.094-.052.325-.611 1.831-.616 2.1l1.191-.481c-.04 2.171.6-1.1 2.795-.934" transform="translate(-1909.869 -454.5)" style="fill:#27427a"/>
                <path data-name="Path 35" d="M1948.784 628.559a2.725 2.725 0 0 0 1.282-2.5l-2.564.928c0 1.124.574 1.828 1.281 1.571" transform="translate(-1913.233 -502.276)" style="fill:#fff"/>
                <path data-name="Path 36" d="M1981.877 620.832a1.852 1.852 0 1 0 1.853-1.852 1.852 1.852 0 0 0-1.853 1.852" transform="translate(-1955.544 -496.596)" style="fill:#ed5353"/>
                <path data-name="Path 37" d="M1983.512 766.944c.651-1.123 4.059-6.529 4.085-10.108a52.223 52.223 0 0 0-1.68-9.893c3.089 6.772 3.054 9.115 7.1 10.076-1.321 12.929 1.112 15.762 3.5 19.747-10.356-.995-13.753-8.535-13.007-9.821" transform="translate(-1966.786 -599.258)" style="fill:#4456c4"/>
                <path data-name="Path 38" d="m1846.83 752.666-13.187 2.832c-2.578.554-4.012-.81-3.186-3.03l7.468-20.072a9.3 9.3 0 0 1 6.189-5.043l13.188-2.832c2.577-.553 4.01.81 3.185 3.03l-7.468 20.072a9.3 9.3 0 0 1-6.189 5.043" transform="translate(-1800.699 -581.17)" style="fill:#27427a"/>
                <path data-name="Path 39" d="M1963.669 685.948c1.037-5.715 4.16-7.582 4.16-7.582l2.967 15.106-1.681 9.607c-.314 1.8-.965 3.757 1.1 4.123l14.12-1.186-.976 4.614-14.765 4.069a6.33 6.33 0 0 1-7.983-5.242 26.429 26.429 0 0 1 .122-6.186s1.771-10.9 2.937-17.323" transform="translate(-1950.062 -544.239)" style="fill:#4e62e0"/>
                <path data-name="Path 40" d="M1942.9 820.172a2.423 2.423 0 0 1-2.4 2.213l-4.2-.107a2.08 2.08 0 0 1-2-2.322 2.423 2.423 0 0 1 2.4-2.213l4.2.107a2.08 2.08 0 0 1 2 2.322" transform="translate(-1903.464 -656.059)" style="fill:#ed5353"/>
                <path data-name="Path 41" d="m1652.154 92.69-9.924-6.457-59.518 48.342 12.182 7.821z" transform="translate(-1543.194 -69.182)" style="fill:#bd4242"/>
                <path data-name="Path 42" d="m1648.288 113.1-36.123 10.71c-14.214 4.214-27.893-10.013-24.623-25.61l.324-1.548a19.285 19.285 0 0 1 13.112-14.858l39.586-11.737c13.757-4.079 27 9.692 23.833 24.788-1.864 8.893-8 15.851-16.109 18.254" transform="translate(-1556.77 -55.621)" style="fill:#bd4242"/>
                <path data-name="Path 43" d="m1832.357 293.642-2.124 24.893a2.774 2.774 0 0 0 3.915 2.722l23.434-14.307z" transform="translate(-1797.561 -235.583)" style="fill:#bd4242"/>
                <path data-name="Path 44" d="m1598.888 145.2-36.122 10.71c-14.213 4.214-27.893-10.013-24.623-25.61l.324-1.548a19.285 19.285 0 0 1 13.113-14.852l39.585-11.737c13.757-4.079 27 9.692 23.833 24.788-1.865 8.893-8.005 15.851-16.11 18.254" transform="translate(-1497.604 -81.377)" style="fill:#ed5353"/>
                <path data-name="Path 45" d="M1793.922 231.5c-.255 3.315-2.708 6.668-5.479 7.49s-4.812-1.2-4.557-4.514 2.708-6.668 5.479-7.489 4.812 1.2 4.556 4.514" transform="translate(-1724.756 -181.957)" style="fill:#fff"/>
                <path data-name="Path 46" d="M1710.975 209.761c-.254 3.314-2.708 6.668-5.479 7.489s-4.811-1.2-4.557-4.514 2.708-6.668 5.48-7.489 4.811 1.2 4.556 4.514" transform="translate(-1625.409 -164.518)" style="fill:#fff"/>
                <path data-name="Path 47" d="M1636.067 190.568c-.255 3.315-2.709 6.668-5.48 7.489s-4.811-1.2-4.557-4.514 2.708-6.668 5.48-7.489 4.811 1.2 4.557 4.514" transform="translate(-1535.689 -149.12)" style="fill:#fff"/>
                <path data-name="Path 48" d="M802.118 399.649c2.067 11.274 8.156 20.25 13.6 20.048s8.18-9.506 6.113-20.781-8.155-20.25-13.6-20.047-8.18 9.507-6.113 20.781" transform="translate(-559.086 -303.956)" style="fill:#2e4f91"/>
                <path data-name="Path 49" d="M1171.85 425.432s-22.517-42.837-11.458-71.837" transform="translate(-978.786 -283.682)" style="stroke:#27427a;stroke-linecap:round;stroke-linejoin:round;stroke-width:5.333px;fill:none"/>
                <path data-name="Path 50" d="M689.1 53.787c14.524-3.052 32.083 19.5 43.364 53.2-12.844-12.1-32.863-18.54-62.348 1.491-.891-29.766 6.07-51.978 18.984-54.692" transform="translate(-443.057 -42.93)" style="fill:#3f50b8"/>
                <path data-name="Path 51" d="M1014.453 326.372c-14.656-15.326-30.845-78.81-21.223-117.243l-11.84 13.449c-4.932 5.6-4.762 71.684 16.284 95.792z" transform="translate(-786.078 -167.779)" style="fill:#fff"/>
                <g data-name="Group 16" style="opacity:.21;mix-blend-mode:multiply;isolation:isolate">
                    <g data-name="Group 15">
                        <g data-name="Group 14" style="clip-path:url(#ffua8v617a)" transform="translate(95.09 128.731)">
                            <path data-name="Path 52" d="M1452.691 656.937a36.08 36.08 0 0 0 20.091 13.794l-8.106 1.345-.284.043a31.045 31.045 0 0 1-35.989-21.041 38.25 38.25 0 0 0 24.288 5.86" transform="translate(-1428.402 -651.077)" style="fill:#8b92e3"/>
                        </g>
                    </g>
                </g>
                <g data-name="Group 13" style="opacity:.21;mix-blend-mode:multiply;isolation:isolate">
                    <g data-name="Group 12">
                        <g data-name="Group 11" style="clip-path:url(#trd4m98xwb)" transform="translate(0 247.54)">
                            <path data-name="Path 15" d="M1869.273 1253.222c8.448-3.024 22.7-3.012 31.827.028a21.421 21.421 0 0 1 3.916 1.7c5.923-1.227 13.878-.944 19.286.857 6.415 2.137 6.8 5.591.865 7.717-5.7 2.042-15.165 2.108-21.589.215-.393.168-.8.333-1.247.491-8.449 3.026-22.7 3.012-31.827-.028s-9.681-7.957-1.231-10.983" transform="translate(-1863.28 -1250.962)" style="fill:#8288d4"/>
                        </g>
                    </g>
                </g>
                <g data-name="Group 40" style="opacity:.21;mix-blend-mode:multiply;isolation:isolate">
                    <g data-name="Group 12">
                        <g data-name="Group 11" style="clip-path:url(#f6rhs8nc0c)" transform="translate(173.282 299.619)">
                            <path data-name="Path 15" d="M1870.373 1253.637c10-3.579 26.865-3.565 37.667.034a25.322 25.322 0 0 1 4.635 2.016c7.01-1.452 16.425-1.117 22.825 1.014 7.592 2.529 8.05 6.617 1.024 9.133-6.751 2.417-17.948 2.495-25.55.254-.465.2-.952.394-1.476.581-10 3.581-26.864 3.565-37.668-.033s-11.457-9.417-1.457-13" transform="translate(-1863.28 -1250.962)" style="fill:#8288d4"/>
                        </g>
                    </g>
                </g>
                <path data-name="Path 78" d="M190.156 719.287a2.87 2.87 0 0 0 1.486-2.576l-2.768.839c-.056 1.191.518 1.969 1.282 1.738" transform="translate(192.905 -575.003)" style="fill:#fff"/>
                <path data-name="Path 81" d="M1030.619 1156.433a2.156 2.156 0 0 0 2.653-1.606l.882-4.1a2.307 2.307 0 0 0-1.728-2.677 2.156 2.156 0 0 0-2.653 1.605l-.882 4.1a2.307 2.307 0 0 0 1.728 2.677" transform="translate(-815.733 -921.008)" style="fill:#ed5353"/>
                <path data-name="Path 82" d="M948.935 926.77s19.357 11.587 17.828 16.482-8.91 20.44-8.91 20.44l4.235 2.615s17.712-20.137 15.686-25.743c-2.536-7.019-20.984-22.451-20.984-22.451z" transform="translate(-743.667 -736.584)" style="fill:#ed5353"/>
                <path data-name="Path 84" d="m1032.387 1503.411-7.381-6.8a7.379 7.379 0 0 0-4.363-.635c-.782.109-.846-.477-.877.24l-1.108 2.894c-.957 1.905.466 3.35 2.661 4.385l7.477 3.39a6.264 6.264 0 0 0 5.135.1l.363-.2c1.283-.708-.311-2.178-1.907-3.369" transform="translate(-814.219 -1200.092)" style="fill:#1e335e"/>
                <path data-name="Path 85" d="M1067.225 1472.578c.107 2.324 5.752 2.3 5.645-.027l-.349-7.551-5.646.027z" transform="translate(-861.923 -1175.342)" style="fill:#acacd1"/>
                <path data-name="Path 86" d="m1156.176 1533.863-3.794-8.864c-.435-1.492-1.931-1.628-3.527-1.9-.716-.121-2.417.129-2.716.828l-.656 2.364c-.638 2.629.335 3.775 1.838 5.436l3.96 4.027a5.478 5.478 0 0 0 4.981 1.5c1.377-.326.84-1.754-.086-3.394" transform="translate(-961.651 -1221.933)" style="fill:#1e335e"/>
                <path data-name="Path 87" d="M1168.215 1498.761c-.111 2.321 5.518 2.824 5.629.5l.362-7.542-5.629-.5z" transform="translate(-983.292 -1196.377)" style="fill:#acacd1"/>
                <path data-name="Path 88" d="M1059.459 1176.24c2.381 1.893 4.745 1.942 7.089.182 0 0 3.767-46.547 2.345-70.628l-17.818-6.5c2.295 14.841 7.242 39.269 7.242 39.269-5.107 11.849-.392 27.088 1.142 37.674" transform="translate(-855.14 -881.945)" style="fill:#28437d"/>
                <path data-name="Path 89" d="m1071.047 1099.3 5 1.822c1.4 8.794 3.582 20.31 5.133 28.288a43.116 43.116 0 0 1 .066 15.578c-1.829 10.63 1.659 22.683 2.937 31.5a8.226 8.226 0 0 0 1.057.715c-1.923.9-3.858.586-5.805-.963-1.363-9.409-5.241-22.495-2.5-33.609a23.736 23.736 0 0 0 .126-10.249c-1.618-8.225-4.439-22.909-6.012-33.084" transform="translate(-875.113 -881.946)" style="fill:#1e335e"/>
                <path data-name="Path 90" d="M1105.526 1202.055c2.43 2.107 4.784 2.575 7.051 1.174 0 0 1.953-15.422 5.053-31.795 2.4-12.672 5.983-25.34 6.776-35.485l-16.573-10.521c.184 9.065-.4 28.964-.678 37.5a13.784 13.784 0 0 1-1.422 5.67c-3.763 7.636-.206 33.458-.206 33.458" transform="translate(-920.796 -902.91)" style="fill:#28437d"/>
                <path data-name="Path 91" d="M1069.786 949.154a280.532 280.532 0 0 1 1.8-30.334c-.071-14.226-5.459-19.686-14.383-16.741l-3.689.849c-10.761 5.435-16.243 4.943-14.255 16.461l.822 27.2c.065 12.919 30.474 17.772 29.71 2.56" transform="translate(-855.091 -723.102)" style="fill:#ffc54f"/>
                <path data-name="Path 92" d="m1102.751 992.763.822 27.2c.038 7.534 10.394 12.324 18.871 11.992-9.624-6.029-15.612-20.42-19.693-39.2" transform="translate(-918.588 -796.475)" style="fill:#f2a50a"/>
                <path data-name="Path 93" d="M1172.286 1180.856a2.288 2.288 0 0 1-2.848-1.411l-1.495-4.059a2.174 2.174 0 0 1 1.283-2.832 2.288 2.288 0 0 1 2.848 1.412l1.494 4.058a2.172 2.172 0 0 1-1.283 2.831" transform="translate(-982.717 -940.625)" style="fill:#ed5353"/>
                <path data-name="Path 94" d="M1167.179 951.134s-18.428 11.822-16.742 16.8 9.256 21.047 9.256 21.047l-3.938 1.825s-18.272-20.613-16.424-26.121c2.314-6.9 17.023-22.317 17.023-22.317z" transform="translate(-970.53 -756.044)" style="fill:#ed5353"/>
                <path data-name="Path 95" d="M1096.9 904.017s5.651 7.384-1.3 9.909-11.461-6.859-11.461-6.859l8.026-3.924z" transform="translate(-891.527 -724.574)" style="fill:#fff"/>
                <path data-name="Path 96" d="M1112.765 857.06a6.944 6.944 0 0 1-1.577 1.853c-.62.3-9.382-3.743-8.678-10.907.445-4.536 9.067-3.22 9.067-3.22z" transform="translate(-908.853 -677.613)" style="fill:#27427a"/>
                <path data-name="Path 97" d="m1100.591 885.74.432.077a2.557 2.557 0 0 0 3.01-2.164l1.128-8.182a2.818 2.818 0 0 0-2.284-3.113l-.431-.077a2.558 2.558 0 0 0-3.011 2.164l-2.244 7.655c-.2 1.451 1.944 3.38 3.4 3.64" transform="translate(-900.229 -699.78)" style="fill:#ed5353"/>
                <path data-name="Path 98" d="M1106.285 897.325a7.642 7.642 0 0 1-5.9-3.353s2.371 5.169 5.584 5.641z" transform="translate(-901.961 -717.217)" style="fill:#ba4141"/>
                <path data-name="Path 99" d="M1073.758 842.781c1.8 3.475 4.7 4.044 6.48 1.272s1.758-7.838-.043-11.313-4.7-4.044-6.478-1.272-1.758 7.837.042 11.313" transform="translate(-871.701 -665.661)" style="fill:#ed5353"/>
                <path data-name="Path 100" d="M1079.3 840.571c1.8 3.475 8.242 5.224 10.019 2.452s-.534-8.926-2.335-12.4-4.7-4.045-6.478-1.272-3.007 7.747-1.206 11.222" transform="translate(-881.295 -663.961)" style="fill:#ed5353"/>
                <path data-name="Path 101" d="M1105.319 828.017s1.613 7.021-3.776 9.023c0 0-6.7-3.188-2.871-10.348 3.377-6.311 10.421-2.225 10.421-2.225z" transform="translate(-904.196 -660.411)" style="fill:#27427a"/>
                <path data-name="Path 102" d="M1074.746 844.665a4.274 4.274 0 0 0-2.723-3.874l.509-2.069s3.033.46 2.214 5.943" transform="translate(-864.955 -672.891)" style="fill:#27427a"/>
                <path data-name="Path 103" d="M1075.787 829.327c1.032-1.747 2.472-.038 2.472-.038.924-2.8 4.06-3.719 4.634-3.884a4.007 4.007 0 0 1 4.274 1.458c.332-2.351-1.061-5.529-3.42-5.96l-5.747-1.468a6.1 6.1 0 0 0-6.759 4.733l-.113.391c-.332 2.35 2.3 4.337 4.659 4.768" transform="translate(-877.102 -657.344)" style="fill:#27427a"/>
                <path data-name="Path 104" d="M1123.049 882.605a1.741 1.741 0 0 0 2.287.8 1.65 1.65 0 0 0 .7-2.263 1.738 1.738 0 0 0-2.286-.8 1.65 1.65 0 0 0-.7 2.263" transform="translate(-926.352 -706.148)" style="fill:#ed5353"/>
                <path data-name="Path 105" d="M1084.54 893.557a2.8 2.8 0 0 0 1.5-2.5l-2.734.762c-.075 1.169.477 1.946 1.232 1.735" transform="translate(-878.341 -714.881)" style="fill:#fff"/>
                <path data-name="Path 106" d="m1158.691 945.286-14.466 13.631s-11.388-5.163-7.387-11.959 12.228-11.457 12.228-11.457z" transform="translate(-961.406 -750.534)" style="fill:#ffc54f"/>
                <path data-name="Path 107" d="m984.517 912.016 15.192 12.43s.224 9.913-7.291 11.146l-7.009-4.85z" transform="translate(-772.476 -731.693)" style="fill:#ffc54f"/>
                <g data-name="Group 25" style="opacity:.21;mix-blend-mode:multiply;isolation:isolate">
                    <g data-name="Group 24">
                        <g data-name="Group 23" style="clip-path:url(#qkvlp42otd)" transform="translate(198.508 120.884)">
                            <path data-name="Path 108" d="M1038.8 631.321a93.557 93.557 0 0 1-6.664-18.01l13.055-1.92a170.512 170.512 0 0 0 6.255 19.063z" transform="translate(-1032.136 -611.391)" style="fill:#8b92e3"/>
                        </g>
                    </g>
                </g>
            </g>
        </g>
    </g>
</svg>
