<?xml version="1.0" encoding="UTF-8"?>
<svg id="Layer_1" data-name="Layer 1" xmlns="http://www.w3.org/2000/svg" xmlns:xlink="http://www.w3.org/1999/xlink" viewBox="0 0 28.9 24.5">
  <defs>
    <style>
      .cls-1 {
        fill: #fff;
      }

      .cls-2 {
        fill: #348ba2;
      }

      .cls-3 {
        fill: #a8a6a1;
      }

      .cls-4 {
        fill: #f2bd6d;
      }

      .cls-5 {
        clip-path: url(#clippath-1);
      }

      .cls-6 {
        fill: #6d6e71;
      }

      .cls-7 {
        fill: #ffd99e;
      }

      .cls-8 {
        fill: #3999b3;
      }

      .cls-9 {
        clip-path: url(#clippath);
      }

      .cls-10 {
        fill: none;
      }

      .cls-11 {
        fill: #fea929;
      }

      .cls-12 {
        fill: #2d2d2e;
      }

      .cls-13 {
        fill: #2d788c;
      }

      .cls-14 {
        fill: #b03a40;
      }

      .cls-15 {
        fill: #e3e1de;
      }

      .cls-16 {
        fill: #d85354;
      }
    </style>
    <clipPath id="clippath">
      <path class="cls-10" d="M4.9,9.8v9.1h0c.1,1.1,2,1.9,4.2,1.9s4.1-.8,4.2-1.9h0V9.8H4.9Z"/>
    </clipPath>
    <clipPath id="clippath-1">
      <path class="cls-10" d="M17.1,2.6V7.9h0c0,.6,1.2,1.1,2.5,1.1s2.4-.5,2.5-1.1h0V2.6h-5Z"/>
    </clipPath>
  </defs>
  <path class="cls-16" d="M18.2,14.4c0-.2-.1-.3-.3-.3h-1.5c0-.5-.2-.9-.4-1.4l1.3-.8c.1,0,.2-.3,.1-.4l-.9-1.6c0-.1-.3-.2-.4-.1l-1.3,.8c-.3-.4-.6-.7-1-1l.8-1.3c0-.1,0-.3-.1-.4l-1.6-.9c-.1,0-.3,0-.4,.1l-.8,1.3c-.4-.2-.9-.3-1.4-.4v-1.5c0-.2-.1-.3-.3-.3h-1.9c-.2,0-.3,.1-.3,.3v1.5c-.5,0-.9,.2-1.4,.4l-.8-1.3c0-.1-.3-.2-.4-.1l-1.6,.9c-.1,0-.2,.3-.1,.4l.8,1.3c-.4,.3-.7,.6-1,1l-1.3-.8c-.1,0-.3,0-.4,.1l-.9,1.6c0,.1,0,.3,.1,.4l1.3,.8c-.2,.4-.3,.9-.4,1.4H.3c-.2,0-.3,.1-.3,.3v1.9c0,.2,.1,.3,.3,.3H1.8c0,.5,.2,.9,.4,1.4l-1.3,.8c-.1,0-.2,.3-.1,.4l.9,1.6c0,.1,.3,.2,.4,.1l1.3-.8c.3,.4,.6,.7,1,1l-.8,1.3c0,.1,0,.3,.1,.4l1.6,.9c.1,0,.3,0,.4-.1l.8-1.3c.4,.2,.9,.3,1.4,.4v1.5c0,.2,.1,.3,.3,.3h1.9c.2,0,.3-.1,.3-.3v-1.5c.5,0,.9-.2,1.4-.4l.8,1.3c0,.1,.3,.2,.4,.1l1.6-.9c.1,0,.2-.3,.1-.4l-.8-1.3c.4-.3,.7-.6,1-1l1.3,.8c.1,0,.3,0,.4-.1l.9-1.6c0-.1,0-.3-.1-.4l-1.3-.8c.2-.4,.3-.9,.4-1.4h1.5c.2,0,.3-.1,.3-.3v-1.9Z"/>
  <path class="cls-1" d="M15.1,15.3c0-3.3-2.7-6-6-6s-6,2.7-6,6,2.7,6,6,6,6-2.7,6-6Z"/>
  <g>
    <path class="cls-11" d="M28.9,14.2c0,0,0-.1-.1-.1h-.8c0-.2-.1-.5-.2-.7l.7-.4c0,0,0-.1,0-.2l-.5-.8c0,0-.1,0-.2,0l-.7,.4c-.2-.2-.3-.4-.5-.5l.4-.7c0,0,0-.2,0-.2l-.8-.5c0,0-.2,0-.2,0l-.4,.7c-.2,0-.5-.2-.7-.2v-.8c0,0,0-.1-.1-.1h-1c0,0-.1,0-.1,.1v.8c-.2,0-.5,.1-.7,.2l-.4-.7c0,0-.1,0-.2,0l-.8,.5c0,0,0,.1,0,.2l.4,.7c-.2,.2-.4,.3-.5,.5l-.7-.4c0,0-.2,0-.2,0l-.5,.8c0,0,0,.2,0,.2l.7,.4c0,.2-.2,.5-.2,.7h-.8c0,0-.1,0-.1,.1v1c0,0,0,.1,.1,.1h.8c0,.2,.1,.5,.2,.7l-.7,.4c0,0,0,.1,0,.2l.5,.8c0,0,.1,0,.2,0l.7-.4c.2,.2,.3,.4,.5,.5l-.4,.7c0,0,0,.2,0,.2l.8,.5c0,0,.2,0,.2,0l.4-.7c.2,0,.5,.2,.7,.2v.8c0,0,0,.1,.1,.1h1c0,0,.1,0,.1-.1v-.8c.2,0,.5-.1,.7-.2l.4,.7c0,0,.1,0,.2,0l.8-.5c0,0,0-.1,0-.2l-.4-.7c.2-.2,.4-.3,.5-.5l.7,.4c0,0,.2,0,.2,0l.5-.8c0,0,0-.2,0-.2l-.7-.4c0-.2,.2-.5,.2-.7h.8c0,0,.1,0,.1-.1v-1Z"/>
    <path class="cls-1" d="M26.8,14.7c0-1.5-1.2-2.7-2.7-2.7s-2.7,1.2-2.7,2.7,1.2,2.7,2.7,2.7,2.7-1.2,2.7-2.7Z"/>
    <path class="cls-11" d="M25.7,14.7c0-.8-.7-1.5-1.5-1.5s-1.5,.7-1.5,1.5,.7,1.5,1.5,1.5,1.5-.7,1.5-1.5Z"/>
  </g>
  <g class="cls-9">
    <path class="cls-4" d="M11.2,13.1c0-.4-.2-.5-.4-.5s-.4,.1-.4,.5,.2,.7,.4,.7,.4-.3,.4-.7Z"/>
    <path class="cls-4" d="M7.9,13.1c0-.4-.2-.5-.4-.5s-.4,.1-.4,.5,.2,.7,.4,.7,.4-.3,.4-.7Z"/>
    <polygon class="cls-13" points="9.1 22.4 9.1 15.5 6.3 16.3 6.3 22.4 9.1 22.4"/>
    <polygon class="cls-13" points="11.9 22.4 11.9 16.3 9.1 15.5 9.1 22.4 11.9 22.4"/>
    <rect class="cls-4" x="8" y="14.6" width="2.2" height="2.4"/>
    <path class="cls-7" d="M10.8,13c0-1.5-1-2-1.7-2s-1.7,.5-1.7,2,1,2.8,1.7,2.8,1.7-1.3,1.7-2.8Z"/>
    <path class="cls-12" d="M7.4,13.3c.2-1.2-.3-1,1.7-1.3,.9-.1,1.6-.4,1.7,1.3l.3-.4c0,0,0-.2,0-.3,0-1.7-.9-2.3-2.1-2.3s-2.1,.6-2.1,2.3,0,.2,0,.3l.3,.4Z"/>
    <polygon class="cls-15" points="8 16.6 8 16.7 9.1 20.7 9.1 20.7 10.2 16.7 10.2 16.6 8 16.6"/>
    <path class="cls-2" d="M6.3,22.4v-6.2l-.7,.2c-.4,0-.7,.6-.7,1.4v4.6h1.4Z"/>
    <path class="cls-2" d="M13.2,22.4v-4.6c0-.7-.3-1.4-.7-1.4l-.7-.2v6.2h1.4Z"/>
    <polygon class="cls-1" points="8 15.6 7.7 15.9 8 17.4 8.7 16.6 8 15.6"/>
    <polygon class="cls-1" points="10.2 15.6 10.5 15.9 10.2 17.4 9.5 16.6 10.2 15.6"/>
    <g>
      <g>
        <polygon class="cls-14" points="9.5 16.6 8.8 16.6 8.9 17.4 9.3 17.4 9.5 16.6"/>
        <polygon class="cls-14" points="9.1 17.4 8.9 17.4 8.8 19.8 9.1 20.7 9.5 19.8 9.3 17.4 9.1 17.4"/>
      </g>
      <polygon class="cls-8" points="9.1 20.7 10.4 15.7 10.9 16 10.7 17.4 10.2 17.6 10.4 18.1 9.1 20.7"/>
      <polygon class="cls-8" points="9.1 20.7 7.8 15.7 7.3 16 7.6 17.4 8.1 17.6 7.8 18.1 9.1 20.7"/>
    </g>
  </g>
  <g>
    <path class="cls-2" d="M25.5,5c0-.3-.7-.5-1.6-.5,0-.3-.2-.6-.4-.8,.7-.5,1-1.2,.8-1.5-.2-.3-.9-.1-1.6,.4-.2-.2-.5-.4-.7-.6,.3-.8,.3-1.5,0-1.6-.3-.1-.8,.3-1.2,1.1-.3,0-.6-.1-.9-.2-.2-.8-.5-1.4-.8-1.3-.3,0-.5,.7-.5,1.5-.3,0-.6,.2-.9,.3-.5-.6-1.1-.9-1.4-.7-.3,.2-.1,.8,.3,1.4-.3,.2-.5,.5-.7,.8-.7-.2-1.3-.2-1.4,.1-.1,.3,.3,.7,.9,1.1-.1,.3-.2,.7-.2,1.1-.7,.2-1.2,.5-1.1,.8,0,.3,.6,.5,1.3,.5,0,.4,.2,.7,.4,1-.5,.5-.7,1-.6,1.2,.2,.2,.7,.1,1.3-.2,.3,.3,.6,.5,.9,.7-.2,.7-.2,1.3,.1,1.4,.3,.1,.7-.3,1.1-.9,.3,0,.7,.1,1.1,.1,.2,.7,.5,1.2,.8,1.2,.3,0,.5-.6,.5-1.4,.3-.1,.6-.2,.9-.4,.5,.6,1.1,.9,1.3,.7,.3-.2,.1-.8-.3-1.5,.2-.2,.4-.5,.6-.8,.8,.3,1.4,.2,1.6,0,.1-.3-.3-.8-1.1-1.2,0-.3,.1-.6,.1-.9,.8-.1,1.4-.5,1.4-.9Z"/>
    <path class="cls-1" d="M23.2,5.8c0-2-1.6-3.6-3.6-3.6s-3.6,1.6-3.6,3.6,1.6,3.6,3.6,3.6,3.6-1.6,3.6-3.6Z"/>
    <g class="cls-5">
      <path class="cls-4" d="M20.8,4.5c0-.2-.1-.3-.3-.3s-.3,0-.3,.3,.1,.4,.3,.4,.3-.2,.3-.4Z"/>
      <path class="cls-4" d="M18.9,4.5c0-.2-.1-.3-.3-.3s-.3,0-.3,.3,.1,.4,.3,.4,.3-.2,.3-.4Z"/>
      <polygon class="cls-13" points="19.6 10 19.6 5.9 17.9 6.3 17.9 10 19.6 10"/>
      <polygon class="cls-13" points="21.2 10 21.2 6.3 19.6 5.9 19.6 10 21.2 10"/>
      <rect class="cls-4" x="18.9" y="5.4" width="1.3" height="1.4"/>
      <path class="cls-7" d="M20.6,4.4c0-.9-.6-1.2-1-1.2s-1,.3-1,1.2,.6,1.6,1,1.6,1-.7,1-1.6Z"/>
      <path class="cls-3" d="M18.6,4.6c.1-.7-.1-1.5,1-.8,.5,.3,1-.2,1,.8l.2-.2c0,0,0-.1,0-.2,0-1-.5-1.4-1.2-1.4s-1.2,.3-1.2,1.4,0,.1,0,.2l.2,.2Z"/>
      <polygon class="cls-15" points="18.9 6.6 18.9 6.6 19.6 9 19.6 9 20.2 6.6 20.2 6.6 18.9 6.6"/>
      <path class="cls-2" d="M17.9,10v-3.6h-.4c-.2,.1-.4,.5-.4,.9v2.7h.8Z"/>
      <path class="cls-2" d="M22,10v-2.7c0-.4-.2-.8-.4-.8h-.4c0-.1,0,3.5,0,3.5h.8Z"/>
      <polygon class="cls-1" points="18.9 5.9 18.8 6.1 18.9 7 19.4 6.6 18.9 5.9"/>
      <polygon class="cls-1" points="20.2 5.9 20.4 6.1 20.2 7 19.8 6.6 20.2 5.9"/>
      <g>
        <g>
          <polygon class="cls-6" points="19.8 6.6 19.4 6.6 19.4 7 19.7 7 19.8 6.6"/>
          <polygon class="cls-6" points="19.6 7 19.4 7 19.4 8.4 19.6 9 19.8 8.4 19.7 7 19.6 7"/>
        </g>
        <polygon class="cls-8" points="19.6 9 20.3 6 20.7 6.2 20.5 7 20.2 7.1 20.3 7.4 19.6 9"/>
        <polygon class="cls-8" points="19.6 9 18.8 6 18.5 6.2 18.7 7 19 7.1 18.8 7.4 19.6 9"/>
      </g>
    </g>
  </g>
</svg>